<?xml version="1.0" encoding="utf-8"?>
<!-- Generator: Adobe Illustrator 16.0.0, SVG Export Plug-In . SVG Version: 6.00 Build 0)  -->
<!DOCTYPE svg PUBLIC "-//W3C//DTD SVG 1.1//EN" "http://www.w3.org/Graphics/SVG/1.1/DTD/svg11.dtd">
<svg version="1.1" id="レイヤー_1" xmlns="http://www.w3.org/2000/svg" xmlns:xlink="http://www.w3.org/1999/xlink" x="0px"
	 y="0px" width="256px" height="256px" viewBox="0 0 256 256" enable-background="new 0 0 256 256" xml:space="preserve">
<rect x="0" fill="#FF7F27" width="256" height="256"/>
<polygon fill="#EFE4B0" points="48,192 32,192 32,208 48,208 64,208 64,192 "/>
<polygon fill="#EFE4B0" points="96,208 80,208 64,208 64,224 80,224 96,224 112,224 112,208 "/>
<polygon fill="#EFE4B0" points="144,16.667 144,0.667 128,0.667 112,0.667 96,0.667 80,0.667 64,0.667 48,0.667 32,0.667 16,0.667 
	16,16 0.001,16 0.001,32 0.001,48 0.001,64 0.001,80 0.001,96 0.001,112 0.001,128 0.001,144 0.001,160 16,160 16,144 16,128 
	16,112 16,96 16,80 16,64 16,48 16,32 16,16.667 32,16.667 48,16.667 64,16.667 80,16.667 96,16.667 112,16.667 128,16.667 "/>
<polygon fill="#EFE4B0" points="224,0 208,0 192,0 176,0 176,16 192,16 208,16 224,16 240,16 240,0 "/>
<polygon fill="#EFE4B0" points="160,32 160,48 160,64 160,80 176,80 176,64 176,48 176,32 176,16 160,16 "/>
<polygon fill="#EFE4B0" points="208,96 192,96 176,96 160,96 160,112 160,128 160,144 160,160 176,160 176,144 176,128 176,112 
	192,112 208,112 224,112 240,112 240,96 224,96 "/>
<polygon fill="#EFE4B0" points="144,176 144,192 160,192 160,176 160,160 144,160 "/>
<polygon fill="#EFE4B0" points="0.001,176 0,176 0,192 0,208 0,224 0,240 0.001,240 16,240 16,224 16,208 16,192 32,192 32,176 
	16,176 "/>
<polygon fill="#EFE4B0" points="128,208 128,224 128,240 128,256 144,256 144,240 144,224 144,208 144,192 128,192 "/>
<polygon fill="#040000" points="239.989,16 239.989,32 239.989,48 239.989,64 239.989,80 255.989,80 255.989,64 255.989,48 
	255.989,32 255.989,16 "/>
<polygon fill="#040000" points="207.989,80 191.989,80 191.989,64 175.989,64 175.989,80 175.989,96 191.989,96 207.989,96 
	223.989,96 239.989,96 239.989,80 223.989,80 "/>
<polygon fill="#040000" points="159.989,144 159.989,128 159.989,112 159.989,96 159.989,80 159.989,64 159.989,48 159.989,32 
	159.989,16 159.989,0 143.989,0 143.989,16 143.989,32 143.989,48 143.989,64 143.989,80 143.989,96 143.989,112 143.989,128 
	143.989,144 143.989,160 159.989,160 "/>
<polygon fill="#040000" points="15.989,160 -0.01,160 -0.01,176 15.989,176 31.989,176 31.989,160 "/>
<polygon fill="#040000" points="47.989,176 31.989,176 31.989,192 47.989,192 63.989,192 63.989,176 "/>
<polygon fill="#040000" points="143.989,176 143.989,160 127.989,160 127.989,176 127.989,192 143.989,192 "/>
<polygon fill="#040000" points="95.989,192 79.989,192 63.989,192 63.989,208 79.989,208 95.989,208 111.989,208 111.989,224 
	111.989,240 127.989,240 127.989,224 127.989,208 127.989,192 111.989,192 "/>
<polygon fill="#040000" points="79.989,240 63.989,240 47.989,240 31.989,240 15.989,240 15.989,256 31.989,256 47.989,256 
	63.989,256 79.989,256 95.989,256 111.989,256 111.989,240 95.989,240 "/>
<polygon fill="#040000" points="239.989,128 239.989,144 239.989,160 239.989,176 239.989,192 239.989,208 239.989,224 223.989,224 
	223.989,240 207.989,240 191.989,240 175.989,240 159.989,240 143.989,240 143.989,256 159.989,256 175.989,256 191.989,256 
	207.989,256 223.989,256 239.989,256 239.989,240 255.989,240 255.989,224 255.989,208 255.989,192 255.989,176 255.989,160 
	255.989,144 255.989,128 255.989,112 255.989,96 239.989,96 239.989,112 "/>
</svg>
