<?xml version="1.0" encoding="utf-8"?>
<!-- Generator: Adobe Illustrator 16.0.0, SVG Export Plug-In . SVG Version: 6.00 Build 0)  -->
<!DOCTYPE svg PUBLIC "-//W3C//DTD SVG 1.1//EN" "http://www.w3.org/Graphics/SVG/1.1/DTD/svg11.dtd">
<svg version="1.1" id="レイヤー_1" xmlns="http://www.w3.org/2000/svg" xmlns:xlink="http://www.w3.org/1999/xlink" x="0px"
	 y="0px" width="256px" height="256px" viewBox="0 0 256 256" enable-background="new 0 0 256 256" xml:space="preserve">
<rect y="17" width="256" height="239"/>
<polygon fill="#E75910" points="17,0 17,17 0,17 0,239 239,239 239,0 "/>
<rect x="17" y="17" fill="#FFA441" width="222" height="222"/>
<rect x="32" y="32" width="17" height="17"/>
<rect x="207" y="32" width="17" height="17"/>
<rect x="32" y="209" width="17" height="17"/>
<rect x="207" y="209" width="17" height="17"/>
<g>
	<g>
		<path fill="#E75910" d="M160.335,64.5c0-5.333,0-10.667,0-16c-26.664,0-53.336,0-80,0c0,5.333,0,10.667,0,16c-5,0-10,0-15,0
			c0,15.998,0,32.002,0,48c10.666,0,21.334,0,32,0c0-15.998,0-32.002,0-48c15.998,0,32.002,0,48,0c0,15.998,0,32.002,0,48
			c-5.666,0-11.334,0-17,0c0,5,0,10,0,15c-5,0-10,0-15,0c0,10.666,0,21.334,0,32c10.666,0,21.334,0,32,0c0-10.666,0-21.334,0-32
			c10.666,0,21.334,0,32,0c0-20.998,0-42.002,0-63C171.669,64.5,166.001,64.5,160.335,64.5z M113.335,207.5c10.666,0,21.334,0,32,0
			c0-10.332,0-20.668,0-31c-10.666,0-21.334,0-32,0C113.335,186.832,113.335,197.168,113.335,207.5z"/>
	</g>
</g>
<g>
	<g>
		<path d="M145.21,64.5h-48v48h-17v15h33v-48h32V64.5z M177.21,79.5v48h-32v32h-17v17h32v-32h33v-65H177.21z M145.21,207.5h-17v17
			h32v-32h-15V207.5z"/>
	</g>
</g>
</svg>
